<mxfile host="app.diagrams.net" modified="2024-01-18T11:54:06.338Z" agent="Mozilla/5.0 (Macintosh; Intel Mac OS X 10_15_7) AppleWebKit/537.36 (KHTML, like Gecko) Chrome/120.0.0.0 Safari/537.36" etag="DPFM-zFWoqeHERzxw9R9" version="22.1.18" type="github">
  <diagram name="Page-1" id="7g4v0EGq_gPfce9gZ5eK">
    <mxGraphModel dx="1354" dy="1342" grid="1" gridSize="10" guides="1" tooltips="1" connect="1" arrows="1" fold="1" page="0" pageScale="1" pageWidth="827" pageHeight="1169" math="0" shadow="0">
      <root>
        <mxCell id="0" />
        <mxCell id="1" parent="0" />
        <mxCell id="ot9mBxIBDSpR9-AuyoHj-1" value="producer" style="rounded=1;whiteSpace=wrap;html=1;fontSize=16;fillColor=#d5e8d4;strokeColor=#82b366;" vertex="1" parent="1">
          <mxGeometry x="26" y="-389" width="120" height="60" as="geometry" />
        </mxCell>
        <mxCell id="ot9mBxIBDSpR9-AuyoHj-2" value="Interceptors" style="rounded=1;whiteSpace=wrap;html=1;fontSize=16;fillColor=#d5e8d4;strokeColor=#82b366;" vertex="1" parent="1">
          <mxGeometry x="26" y="-307" width="120" height="60" as="geometry" />
        </mxCell>
        <mxCell id="ot9mBxIBDSpR9-AuyoHj-3" value="Serializer" style="rounded=1;whiteSpace=wrap;html=1;fontSize=16;fillColor=#d5e8d4;strokeColor=#82b366;" vertex="1" parent="1">
          <mxGeometry x="26" y="-225" width="120" height="60" as="geometry" />
        </mxCell>
        <mxCell id="ot9mBxIBDSpR9-AuyoHj-4" value="Partitioner" style="rounded=1;whiteSpace=wrap;html=1;fontSize=16;fillColor=#d5e8d4;strokeColor=#82b366;" vertex="1" parent="1">
          <mxGeometry x="26" y="-143" width="120" height="60" as="geometry" />
        </mxCell>
        <mxCell id="ot9mBxIBDSpR9-AuyoHj-11" value="" style="rounded=1;whiteSpace=wrap;html=1;fontSize=16;fillColor=#ffe6cc;strokeColor=#d79b00;" vertex="1" parent="1">
          <mxGeometry x="232" y="-371" width="227" height="280" as="geometry" />
        </mxCell>
        <mxCell id="ot9mBxIBDSpR9-AuyoHj-5" value="" style="shape=cylinder3;whiteSpace=wrap;html=1;boundedLbl=1;backgroundOutline=1;size=15;fontSize=16;rotation=90;fillColor=#f8cecc;strokeColor=#b85450;" vertex="1" parent="1">
          <mxGeometry x="329" y="-380" width="38.5" height="167" as="geometry" />
        </mxCell>
        <mxCell id="ot9mBxIBDSpR9-AuyoHj-6" value="DQueue" style="text;html=1;align=center;verticalAlign=middle;resizable=0;points=[];autosize=1;strokeColor=none;fillColor=none;fontSize=16;" vertex="1" parent="1">
          <mxGeometry x="273" y="-342" width="78" height="31" as="geometry" />
        </mxCell>
        <mxCell id="ot9mBxIBDSpR9-AuyoHj-7" value="" style="shape=cylinder3;whiteSpace=wrap;html=1;boundedLbl=1;backgroundOutline=1;size=15;fontSize=16;rotation=90;fillColor=#f8cecc;strokeColor=#b85450;" vertex="1" parent="1">
          <mxGeometry x="330.75" y="-311" width="38.5" height="167" as="geometry" />
        </mxCell>
        <mxCell id="ot9mBxIBDSpR9-AuyoHj-8" value="DQueue" style="text;html=1;align=center;verticalAlign=middle;resizable=0;points=[];autosize=1;strokeColor=none;fillColor=none;fontSize=16;" vertex="1" parent="1">
          <mxGeometry x="273" y="-272" width="78" height="31" as="geometry" />
        </mxCell>
        <mxCell id="ot9mBxIBDSpR9-AuyoHj-9" value="" style="shape=cylinder3;whiteSpace=wrap;html=1;boundedLbl=1;backgroundOutline=1;size=15;fontSize=16;rotation=90;fillColor=#f8cecc;strokeColor=#b85450;" vertex="1" parent="1">
          <mxGeometry x="330.75" y="-241" width="38.5" height="167" as="geometry" />
        </mxCell>
        <mxCell id="ot9mBxIBDSpR9-AuyoHj-10" value="DQueue" style="text;html=1;align=center;verticalAlign=middle;resizable=0;points=[];autosize=1;strokeColor=none;fillColor=none;fontSize=16;" vertex="1" parent="1">
          <mxGeometry x="274.75" y="-203" width="78" height="31" as="geometry" />
        </mxCell>
        <mxCell id="ot9mBxIBDSpR9-AuyoHj-13" value="RecordAccumulator&lt;br&gt;(default: 32M)" style="text;strokeColor=none;align=center;fillColor=none;html=1;verticalAlign=middle;whiteSpace=wrap;rounded=0;fontSize=16;" vertex="1" parent="1">
          <mxGeometry x="245" y="-408" width="146.25" height="9" as="geometry" />
        </mxCell>
        <mxCell id="ot9mBxIBDSpR9-AuyoHj-14" value="send(ProducerRecord)" style="text;strokeColor=none;align=center;fillColor=none;html=1;verticalAlign=middle;whiteSpace=wrap;rounded=0;fontSize=16;" vertex="1" parent="1">
          <mxGeometry x="-114" y="-337" width="191" height="30" as="geometry" />
        </mxCell>
        <mxCell id="ot9mBxIBDSpR9-AuyoHj-15" value="" style="endArrow=classic;html=1;rounded=0;fontSize=12;startSize=8;endSize=8;curved=1;exitX=0.5;exitY=1;exitDx=0;exitDy=0;entryX=0.5;entryY=0;entryDx=0;entryDy=0;" edge="1" parent="1" source="ot9mBxIBDSpR9-AuyoHj-1" target="ot9mBxIBDSpR9-AuyoHj-2">
          <mxGeometry width="50" height="50" relative="1" as="geometry">
            <mxPoint x="286" y="-234" as="sourcePoint" />
            <mxPoint x="336" y="-284" as="targetPoint" />
          </mxGeometry>
        </mxCell>
        <mxCell id="ot9mBxIBDSpR9-AuyoHj-16" value="" style="endArrow=classic;html=1;rounded=0;fontSize=12;startSize=8;endSize=8;curved=1;entryX=0.5;entryY=0;entryDx=0;entryDy=0;exitX=0.5;exitY=1;exitDx=0;exitDy=0;" edge="1" parent="1" source="ot9mBxIBDSpR9-AuyoHj-2" target="ot9mBxIBDSpR9-AuyoHj-3">
          <mxGeometry width="50" height="50" relative="1" as="geometry">
            <mxPoint x="96" y="-319" as="sourcePoint" />
            <mxPoint x="96" y="-297" as="targetPoint" />
          </mxGeometry>
        </mxCell>
        <mxCell id="ot9mBxIBDSpR9-AuyoHj-17" value="" style="endArrow=classic;html=1;rounded=0;fontSize=12;startSize=8;endSize=8;curved=1;entryX=0.5;entryY=0;entryDx=0;entryDy=0;exitX=0.5;exitY=1;exitDx=0;exitDy=0;" edge="1" parent="1" source="ot9mBxIBDSpR9-AuyoHj-3" target="ot9mBxIBDSpR9-AuyoHj-4">
          <mxGeometry width="50" height="50" relative="1" as="geometry">
            <mxPoint x="96" y="-237" as="sourcePoint" />
            <mxPoint x="96" y="-215" as="targetPoint" />
          </mxGeometry>
        </mxCell>
        <mxCell id="ot9mBxIBDSpR9-AuyoHj-19" value="" style="whiteSpace=wrap;html=1;aspect=fixed;fontSize=16;" vertex="1" parent="1">
          <mxGeometry x="289" y="-311.5" width="30" height="30" as="geometry" />
        </mxCell>
        <mxCell id="ot9mBxIBDSpR9-AuyoHj-20" value="" style="whiteSpace=wrap;html=1;aspect=fixed;fontSize=16;" vertex="1" parent="1">
          <mxGeometry x="325" y="-311" width="30" height="30" as="geometry" />
        </mxCell>
        <mxCell id="ot9mBxIBDSpR9-AuyoHj-21" value="" style="whiteSpace=wrap;html=1;aspect=fixed;fontSize=16;" vertex="1" parent="1">
          <mxGeometry x="289" y="-242.5" width="30" height="30" as="geometry" />
        </mxCell>
        <mxCell id="ot9mBxIBDSpR9-AuyoHj-22" value="" style="whiteSpace=wrap;html=1;aspect=fixed;fontSize=16;" vertex="1" parent="1">
          <mxGeometry x="287" y="-172" width="30" height="30" as="geometry" />
        </mxCell>
        <mxCell id="ot9mBxIBDSpR9-AuyoHj-23" value="" style="whiteSpace=wrap;html=1;aspect=fixed;fontSize=16;" vertex="1" parent="1">
          <mxGeometry x="327" y="-172.5" width="30" height="30" as="geometry" />
        </mxCell>
        <mxCell id="ot9mBxIBDSpR9-AuyoHj-24" value="producer batch&lt;br&gt;default: 16K" style="text;strokeColor=none;align=center;fillColor=none;html=1;verticalAlign=middle;whiteSpace=wrap;rounded=0;fontSize=16;" vertex="1" parent="1">
          <mxGeometry x="269" y="-85" width="175" height="39" as="geometry" />
        </mxCell>
        <mxCell id="ot9mBxIBDSpR9-AuyoHj-39" value="" style="group" vertex="1" connectable="0" parent="1">
          <mxGeometry x="775" y="-429" width="347" height="336" as="geometry" />
        </mxCell>
        <mxCell id="ot9mBxIBDSpR9-AuyoHj-25" value="" style="rounded=1;whiteSpace=wrap;html=1;fontSize=16;fillColor=#bac8d3;strokeColor=#23445d;" vertex="1" parent="ot9mBxIBDSpR9-AuyoHj-39">
          <mxGeometry y="32" width="347" height="304" as="geometry" />
        </mxCell>
        <mxCell id="ot9mBxIBDSpR9-AuyoHj-27" value="" style="rounded=0;whiteSpace=wrap;html=1;fontSize=16;fillColor=#dae8fc;strokeColor=#6c8ebf;" vertex="1" parent="ot9mBxIBDSpR9-AuyoHj-39">
          <mxGeometry x="29" y="68" width="147" height="252" as="geometry" />
        </mxCell>
        <mxCell id="ot9mBxIBDSpR9-AuyoHj-28" value="" style="rounded=0;whiteSpace=wrap;html=1;fontSize=16;fillColor=#dae8fc;strokeColor=#6c8ebf;" vertex="1" parent="ot9mBxIBDSpR9-AuyoHj-39">
          <mxGeometry x="186" y="68" width="147" height="252" as="geometry" />
        </mxCell>
        <mxCell id="ot9mBxIBDSpR9-AuyoHj-29" value="Kafka Cluster" style="text;strokeColor=none;align=center;fillColor=none;html=1;verticalAlign=middle;whiteSpace=wrap;rounded=0;fontSize=16;" vertex="1" parent="ot9mBxIBDSpR9-AuyoHj-39">
          <mxGeometry x="112" width="123" height="30" as="geometry" />
        </mxCell>
        <mxCell id="ot9mBxIBDSpR9-AuyoHj-30" value="broker1" style="text;strokeColor=none;align=center;fillColor=none;html=1;verticalAlign=middle;whiteSpace=wrap;rounded=0;fontSize=16;" vertex="1" parent="ot9mBxIBDSpR9-AuyoHj-39">
          <mxGeometry x="72.5" y="36" width="60" height="30" as="geometry" />
        </mxCell>
        <mxCell id="ot9mBxIBDSpR9-AuyoHj-31" value="broker2" style="text;strokeColor=none;align=center;fillColor=none;html=1;verticalAlign=middle;whiteSpace=wrap;rounded=0;fontSize=16;" vertex="1" parent="ot9mBxIBDSpR9-AuyoHj-39">
          <mxGeometry x="217" y="40.5" width="60" height="21" as="geometry" />
        </mxCell>
        <mxCell id="ot9mBxIBDSpR9-AuyoHj-32" value="" style="rounded=0;whiteSpace=wrap;html=1;fontSize=16;fillColor=#e1d5e7;strokeColor=#9673a6;" vertex="1" parent="ot9mBxIBDSpR9-AuyoHj-39">
          <mxGeometry x="47" y="93" width="120" height="60" as="geometry" />
        </mxCell>
        <mxCell id="ot9mBxIBDSpR9-AuyoHj-33" value="P2" style="rounded=0;whiteSpace=wrap;html=1;fontSize=16;fillColor=#e1d5e7;strokeColor=#9673a6;" vertex="1" parent="ot9mBxIBDSpR9-AuyoHj-39">
          <mxGeometry x="47" y="172" width="120" height="60" as="geometry" />
        </mxCell>
        <mxCell id="ot9mBxIBDSpR9-AuyoHj-34" value="P3" style="rounded=0;whiteSpace=wrap;html=1;fontSize=16;fillColor=#e1d5e7;strokeColor=#9673a6;" vertex="1" parent="ot9mBxIBDSpR9-AuyoHj-39">
          <mxGeometry x="47" y="251" width="120" height="60" as="geometry" />
        </mxCell>
        <mxCell id="ot9mBxIBDSpR9-AuyoHj-35" value="P1" style="rounded=0;whiteSpace=wrap;html=1;fontSize=16;fillColor=#e1d5e7;strokeColor=#9673a6;" vertex="1" parent="ot9mBxIBDSpR9-AuyoHj-39">
          <mxGeometry x="199.5" y="93" width="120" height="60" as="geometry" />
        </mxCell>
        <mxCell id="ot9mBxIBDSpR9-AuyoHj-36" value="P2" style="rounded=0;whiteSpace=wrap;html=1;fontSize=16;fillColor=#e1d5e7;strokeColor=#9673a6;" vertex="1" parent="ot9mBxIBDSpR9-AuyoHj-39">
          <mxGeometry x="199.5" y="172" width="120" height="60" as="geometry" />
        </mxCell>
        <mxCell id="ot9mBxIBDSpR9-AuyoHj-37" value="P3" style="rounded=0;whiteSpace=wrap;html=1;fontSize=16;fillColor=#e1d5e7;strokeColor=#9673a6;" vertex="1" parent="ot9mBxIBDSpR9-AuyoHj-39">
          <mxGeometry x="199.5" y="251" width="120" height="60" as="geometry" />
        </mxCell>
        <mxCell id="ot9mBxIBDSpR9-AuyoHj-38" value="P1" style="text;strokeColor=none;align=center;fillColor=none;html=1;verticalAlign=middle;whiteSpace=wrap;rounded=0;fontSize=16;" vertex="1" parent="ot9mBxIBDSpR9-AuyoHj-39">
          <mxGeometry x="77" y="111" width="60" height="29" as="geometry" />
        </mxCell>
        <mxCell id="ot9mBxIBDSpR9-AuyoHj-40" value="batch.size=16K&lt;br&gt;linger.ms=0" style="text;strokeColor=none;align=center;fillColor=none;html=1;verticalAlign=middle;whiteSpace=wrap;rounded=0;fontSize=16;" vertex="1" parent="1">
          <mxGeometry x="292.75" y="4" width="60" height="30" as="geometry" />
        </mxCell>
        <mxCell id="ot9mBxIBDSpR9-AuyoHj-41" value="sender&lt;br&gt;read data" style="rounded=0;whiteSpace=wrap;html=1;fontSize=16;" vertex="1" parent="1">
          <mxGeometry x="557" y="-375" width="120" height="60" as="geometry" />
        </mxCell>
        <mxCell id="ot9mBxIBDSpR9-AuyoHj-42" value="Network Client" style="rounded=1;whiteSpace=wrap;html=1;fontSize=16;fillColor=#b1ddf0;strokeColor=#10739e;" vertex="1" parent="1">
          <mxGeometry x="537.01" y="-115" width="160" height="78" as="geometry" />
        </mxCell>
        <mxCell id="ot9mBxIBDSpR9-AuyoHj-53" style="edgeStyle=none;curved=1;rounded=0;orthogonalLoop=1;jettySize=auto;html=1;exitX=1;exitY=0.5;exitDx=0;exitDy=0;fontSize=12;startSize=8;endSize=8;" edge="1" parent="1">
          <mxGeometry relative="1" as="geometry">
            <mxPoint x="674" y="-267" as="sourcePoint" />
            <mxPoint x="772" y="-266.4585635359117" as="targetPoint" />
          </mxGeometry>
        </mxCell>
        <mxCell id="ot9mBxIBDSpR9-AuyoHj-44" value="selector" style="rounded=0;whiteSpace=wrap;html=1;fontSize=16;" vertex="1" parent="1">
          <mxGeometry x="557" y="-280.5" width="120" height="68" as="geometry" />
        </mxCell>
        <mxCell id="ot9mBxIBDSpR9-AuyoHj-45" value="" style="endArrow=classic;html=1;rounded=0;fontSize=12;startSize=8;endSize=8;curved=1;exitX=1;exitY=0.5;exitDx=0;exitDy=0;entryX=0.5;entryY=1;entryDx=0;entryDy=0;entryPerimeter=0;" edge="1" parent="1" source="ot9mBxIBDSpR9-AuyoHj-4" target="ot9mBxIBDSpR9-AuyoHj-5">
          <mxGeometry width="50" height="50" relative="1" as="geometry">
            <mxPoint x="442" y="-211" as="sourcePoint" />
            <mxPoint x="492" y="-261" as="targetPoint" />
          </mxGeometry>
        </mxCell>
        <mxCell id="ot9mBxIBDSpR9-AuyoHj-46" value="" style="endArrow=classic;html=1;rounded=0;fontSize=12;startSize=8;endSize=8;curved=1;entryX=0.5;entryY=1;entryDx=0;entryDy=0;entryPerimeter=0;" edge="1" parent="1" target="ot9mBxIBDSpR9-AuyoHj-7">
          <mxGeometry width="50" height="50" relative="1" as="geometry">
            <mxPoint x="147" y="-113" as="sourcePoint" />
            <mxPoint x="275" y="-286" as="targetPoint" />
          </mxGeometry>
        </mxCell>
        <mxCell id="ot9mBxIBDSpR9-AuyoHj-47" value="" style="endArrow=classic;html=1;rounded=0;fontSize=12;startSize=8;endSize=8;curved=1;exitX=1;exitY=0.5;exitDx=0;exitDy=0;entryX=0.5;entryY=1;entryDx=0;entryDy=0;entryPerimeter=0;" edge="1" parent="1" source="ot9mBxIBDSpR9-AuyoHj-4" target="ot9mBxIBDSpR9-AuyoHj-9">
          <mxGeometry width="50" height="50" relative="1" as="geometry">
            <mxPoint x="166" y="-93" as="sourcePoint" />
            <mxPoint x="285" y="-276" as="targetPoint" />
          </mxGeometry>
        </mxCell>
        <mxCell id="ot9mBxIBDSpR9-AuyoHj-48" value="" style="edgeStyle=elbowEdgeStyle;elbow=horizontal;endArrow=classic;html=1;curved=0;rounded=0;endSize=8;startSize=8;fontSize=12;exitX=1;exitY=0.5;exitDx=0;exitDy=0;entryX=0;entryY=0.5;entryDx=0;entryDy=0;" edge="1" parent="1" source="ot9mBxIBDSpR9-AuyoHj-11" target="ot9mBxIBDSpR9-AuyoHj-41">
          <mxGeometry width="50" height="50" relative="1" as="geometry">
            <mxPoint x="471" y="-211" as="sourcePoint" />
            <mxPoint x="521" y="-261" as="targetPoint" />
          </mxGeometry>
        </mxCell>
        <mxCell id="ot9mBxIBDSpR9-AuyoHj-49" value="" style="endArrow=classic;html=1;rounded=0;fontSize=12;startSize=8;endSize=8;curved=1;entryX=0.5;entryY=0;entryDx=0;entryDy=0;exitX=0.5;exitY=1;exitDx=0;exitDy=0;" edge="1" parent="1" source="ot9mBxIBDSpR9-AuyoHj-41">
          <mxGeometry width="50" height="50" relative="1" as="geometry">
            <mxPoint x="471" y="-211" as="sourcePoint" />
            <mxPoint x="617" y="-281" as="targetPoint" />
          </mxGeometry>
        </mxCell>
        <mxCell id="ot9mBxIBDSpR9-AuyoHj-54" value="OK?" style="html=1;whiteSpace=wrap;aspect=fixed;shape=isoRectangle;fontSize=16;" vertex="1" parent="1">
          <mxGeometry x="580.34" y="-188" width="73.33" height="44" as="geometry" />
        </mxCell>
        <mxCell id="ot9mBxIBDSpR9-AuyoHj-55" value="send" style="text;strokeColor=none;align=center;fillColor=none;html=1;verticalAlign=middle;whiteSpace=wrap;rounded=0;fontSize=16;" vertex="1" parent="1">
          <mxGeometry x="692" y="-304" width="60" height="30" as="geometry" />
        </mxCell>
        <mxCell id="ot9mBxIBDSpR9-AuyoHj-56" style="edgeStyle=none;curved=1;rounded=0;orthogonalLoop=1;jettySize=auto;html=1;fontSize=12;startSize=8;endSize=8;entryX=1;entryY=0.75;entryDx=0;entryDy=0;fillColor=#fad9d5;strokeColor=#ae4132;" edge="1" parent="1" target="ot9mBxIBDSpR9-AuyoHj-44">
          <mxGeometry relative="1" as="geometry">
            <mxPoint x="773" y="-229" as="sourcePoint" />
            <mxPoint x="684" y="-220" as="targetPoint" />
          </mxGeometry>
        </mxCell>
        <mxCell id="ot9mBxIBDSpR9-AuyoHj-57" value="ack" style="text;strokeColor=none;align=center;fillColor=none;html=1;verticalAlign=middle;whiteSpace=wrap;rounded=0;fontSize=16;" vertex="1" parent="1">
          <mxGeometry x="703" y="-223" width="60" height="30" as="geometry" />
        </mxCell>
        <mxCell id="ot9mBxIBDSpR9-AuyoHj-58" value="" style="endArrow=classic;html=1;rounded=0;fontSize=12;startSize=8;endSize=8;curved=1;entryX=0.5;entryY=0;entryDx=0;entryDy=0;fillColor=#fad9d5;strokeColor=#ae4132;" edge="1" parent="1" source="ot9mBxIBDSpR9-AuyoHj-54" target="ot9mBxIBDSpR9-AuyoHj-42">
          <mxGeometry width="50" height="50" relative="1" as="geometry">
            <mxPoint x="471" y="-211" as="sourcePoint" />
            <mxPoint x="521" y="-261" as="targetPoint" />
          </mxGeometry>
        </mxCell>
        <mxCell id="ot9mBxIBDSpR9-AuyoHj-59" value="" style="endArrow=classic;html=1;rounded=0;fontSize=12;startSize=8;endSize=8;curved=1;exitX=0.5;exitY=1;exitDx=0;exitDy=0;fillColor=#fad9d5;strokeColor=#ae4132;" edge="1" parent="1" source="ot9mBxIBDSpR9-AuyoHj-44">
          <mxGeometry width="50" height="50" relative="1" as="geometry">
            <mxPoint x="471" y="-211" as="sourcePoint" />
            <mxPoint x="616" y="-188" as="targetPoint" />
          </mxGeometry>
        </mxCell>
        <mxCell id="ot9mBxIBDSpR9-AuyoHj-60" value="" style="edgeStyle=elbowEdgeStyle;elbow=horizontal;endArrow=classic;html=1;curved=0;rounded=0;endSize=8;startSize=8;fontSize=12;exitX=0;exitY=0.5;exitDx=0;exitDy=0;entryX=0.996;entryY=0.636;entryDx=0;entryDy=0;entryPerimeter=0;fillColor=#fad9d5;strokeColor=#ae4132;" edge="1" parent="1" source="ot9mBxIBDSpR9-AuyoHj-42" target="ot9mBxIBDSpR9-AuyoHj-11">
          <mxGeometry width="50" height="50" relative="1" as="geometry">
            <mxPoint x="471" y="-211" as="sourcePoint" />
            <mxPoint x="521" y="-261" as="targetPoint" />
          </mxGeometry>
        </mxCell>
        <mxCell id="ot9mBxIBDSpR9-AuyoHj-61" value="Clean" style="text;strokeColor=none;align=center;fillColor=none;html=1;verticalAlign=middle;whiteSpace=wrap;rounded=0;fontSize=16;" vertex="1" parent="1">
          <mxGeometry x="473" y="-172" width="60" height="30" as="geometry" />
        </mxCell>
        <mxCell id="ot9mBxIBDSpR9-AuyoHj-62" value="Yes" style="text;strokeColor=none;align=center;fillColor=none;html=1;verticalAlign=middle;whiteSpace=wrap;rounded=0;fontSize=16;" vertex="1" parent="1">
          <mxGeometry x="566" y="-143" width="60" height="30" as="geometry" />
        </mxCell>
        <mxCell id="ot9mBxIBDSpR9-AuyoHj-63" value="No to retry" style="text;strokeColor=none;align=center;fillColor=none;html=1;verticalAlign=middle;whiteSpace=wrap;rounded=0;fontSize=16;" vertex="1" parent="1">
          <mxGeometry x="651" y="-181" width="82" height="30" as="geometry" />
        </mxCell>
        <mxCell id="ot9mBxIBDSpR9-AuyoHj-64" value="InFlightRequest&lt;br&gt;&amp;nbsp;默认每个broker节点最多缓存5个请求" style="text;strokeColor=none;align=center;fillColor=none;html=1;verticalAlign=middle;whiteSpace=wrap;rounded=0;fontSize=16;" vertex="1" parent="1">
          <mxGeometry x="462" y="-10" width="301" height="44" as="geometry" />
        </mxCell>
        <mxCell id="ot9mBxIBDSpR9-AuyoHj-65" value="Main Thread" style="text;strokeColor=none;align=center;fillColor=none;html=1;verticalAlign=middle;whiteSpace=wrap;rounded=0;fontSize=16;" vertex="1" parent="1">
          <mxGeometry x="31" y="-453" width="105" height="30" as="geometry" />
        </mxCell>
        <mxCell id="ot9mBxIBDSpR9-AuyoHj-77" value="Actor" style="shape=umlActor;verticalLabelPosition=bottom;verticalAlign=top;html=1;outlineConnect=0;fontSize=16;textOpacity=0;" vertex="1" parent="1">
          <mxGeometry y="140" width="45.75" height="80" as="geometry" />
        </mxCell>
        <mxCell id="ot9mBxIBDSpR9-AuyoHj-79" value="" style="rounded=1;whiteSpace=wrap;html=1;fontSize=16;fillColor=#f8cecc;strokeColor=#b85450;gradientColor=#ea6b66;" vertex="1" parent="1">
          <mxGeometry x="90" y="110" width="880" height="250" as="geometry" />
        </mxCell>
        <mxCell id="ot9mBxIBDSpR9-AuyoHj-84" value="投资目标" style="rounded=1;whiteSpace=wrap;html=1;fontSize=16;fillColor=#b0e3e6;strokeColor=#0e8088;" vertex="1" parent="1">
          <mxGeometry x="273" y="200" width="120" height="60" as="geometry" />
        </mxCell>
        <mxCell id="ot9mBxIBDSpR9-AuyoHj-85" value="投资限制" style="rounded=1;whiteSpace=wrap;html=1;fontSize=16;fillColor=#d0cee2;strokeColor=#56517e;" vertex="1" parent="1">
          <mxGeometry x="273" y="270" width="120" height="60" as="geometry" />
        </mxCell>
        <mxCell id="ot9mBxIBDSpR9-AuyoHj-87" value="风险偏好" style="rounded=1;whiteSpace=wrap;html=1;fontSize=16;fillColor=#fff2cc;gradientColor=#ffd966;strokeColor=#d6b656;" vertex="1" parent="1">
          <mxGeometry x="273" y="130" width="120" height="60" as="geometry" />
        </mxCell>
        <mxCell id="ot9mBxIBDSpR9-AuyoHj-88" value="市场环境" style="rounded=1;whiteSpace=wrap;html=1;fontSize=16;fillColor=#cce5ff;strokeColor=#36393d;" vertex="1" parent="1">
          <mxGeometry x="410" y="200" width="120" height="60" as="geometry" />
        </mxCell>
        <mxCell id="ot9mBxIBDSpR9-AuyoHj-89" value="投资画像" style="rounded=1;whiteSpace=wrap;html=1;fontSize=16;fillColor=#b0e3e6;strokeColor=#0e8088;" vertex="1" parent="1">
          <mxGeometry x="125" y="200" width="120" height="60" as="geometry" />
        </mxCell>
        <mxCell id="ot9mBxIBDSpR9-AuyoHj-91" value="产品" style="ellipse;whiteSpace=wrap;html=1;fontSize=16;" vertex="1" parent="1">
          <mxGeometry x="-22.130000000000003" y="250" width="90" height="60" as="geometry" />
        </mxCell>
        <mxCell id="ot9mBxIBDSpR9-AuyoHj-96" value="" style="group" vertex="1" connectable="0" parent="1">
          <mxGeometry x="610" y="125" width="312.99" height="220" as="geometry" />
        </mxCell>
        <mxCell id="ot9mBxIBDSpR9-AuyoHj-86" value="资产配置" style="rounded=1;whiteSpace=wrap;html=1;fontSize=16;fillColor=#bac8d3;strokeColor=#23445d;" vertex="1" parent="ot9mBxIBDSpR9-AuyoHj-96">
          <mxGeometry width="312.99" height="220" as="geometry" />
        </mxCell>
        <mxCell id="ot9mBxIBDSpR9-AuyoHj-92" value="债券" style="rounded=1;whiteSpace=wrap;html=1;fontSize=16;" vertex="1" parent="ot9mBxIBDSpR9-AuyoHj-96">
          <mxGeometry x="24" y="30" width="120" height="60" as="geometry" />
        </mxCell>
        <mxCell id="ot9mBxIBDSpR9-AuyoHj-93" value="股票" style="rounded=1;whiteSpace=wrap;html=1;fontSize=16;" vertex="1" parent="ot9mBxIBDSpR9-AuyoHj-96">
          <mxGeometry x="154" y="30" width="120" height="60" as="geometry" />
        </mxCell>
        <mxCell id="ot9mBxIBDSpR9-AuyoHj-94" value="衍生品" style="rounded=1;whiteSpace=wrap;html=1;fontSize=16;" vertex="1" parent="ot9mBxIBDSpR9-AuyoHj-96">
          <mxGeometry x="87.66999999999996" y="135" width="120" height="60" as="geometry" />
        </mxCell>
      </root>
    </mxGraphModel>
  </diagram>
</mxfile>
